<svg width="24" height="24" viewBox="0 0 24 24" fill="none" xmlns="http://www.w3.org/2000/svg">
<path d="M16.3906 3.23535C17.5913 2.83119 18.8547 2.964 19.917 3.50781C20.9793 4.05172 21.8257 4.99945 22.1982 6.21191C22.5673 7.41358 22.495 8.95826 21.5713 10.7373C20.6995 12.4134 19.0565 14.4563 17.2275 16.4443C15.4736 18.3508 13.6019 20.147 12.21 21.4336C10.8114 20.1478 8.93683 18.3511 7.18066 16.4443C5.34985 14.4565 3.70673 12.4134 2.83496 10.7373C1.91129 8.95825 1.83894 7.41359 2.20801 6.21191C2.58052 4.99945 3.42699 4.05172 4.48926 3.50781C5.55156 2.96401 6.81496 2.83117 8.01562 3.23535C9.20543 3.63593 10.4132 4.59169 11.3105 6.36816L12.2031 8.13574L13.0957 6.36816C13.993 4.59171 15.2008 3.63593 16.3906 3.23535Z" stroke="#B81B1B" stroke-width="2"/>
</svg>
