<svg width="100" height="100" viewBox="0 0 100 100" fill="none" xmlns="http://www.w3.org/2000/svg">
<g clip-path="url(#clip0_855_1006)">
<path d="M100 0H0V100H100V0Z" fill="black"/>
<path d="M77.8499 36.0802C79.8599 34.3902 82.7799 35.5002 84.8499 36.5202C95.1499 42.1902 86.8999 57.5802 77.1799 58.3102C59.2699 60.5202 35.1799 49.8402 24.8899 34.9402C23.5399 32.8002 22.4899 30.4202 22.0499 27.8602C20.6599 20.3002 25.2099 10.7902 33.6099 10.2102C42.0299 9.42022 48.3899 16.9102 47.7699 25.0102C47.4899 27.5202 46.8199 30.4502 44.2899 31.6702C41.5499 32.8002 38.7199 30.3502 38.5199 27.6502C38.0799 22.3202 42.6799 17.9502 47.5099 16.7102C54.8699 14.8202 59.7999 21.0702 58.3499 28.0702C58.0299 29.9002 57.3999 31.9702 55.7199 33.0402C54.5599 33.6902 52.9699 33.6802 51.9699 32.7202C50.1699 30.4402 51.8899 25.8602 53.5399 23.8602C55.8599 20.7202 60.7099 20.1602 63.5699 22.8702C66.3699 25.4802 66.4599 30.1602 65.1399 33.4302C65.0999 33.4202 65.0699 33.3702 65.0799 33.3302C65.3699 32.1302 65.5199 30.9102 65.6999 29.7002C65.9899 27.2902 65.2199 24.6902 63.4099 23.0302C60.6399 20.4702 55.9999 21.0402 53.8099 24.0802C52.3099 25.9702 51.5399 28.4502 51.6899 30.8502C51.7299 31.4402 51.8899 32.0102 52.2899 32.3802C53.0999 33.1602 54.5099 33.1402 55.4499 32.5902C57.8899 30.7802 58.0099 27.1602 57.8999 24.3602C57.5599 19.2302 52.5499 15.9102 47.6699 17.3802C43.2199 18.5202 38.8299 22.7102 39.2799 27.5502C39.4599 29.8002 41.7599 31.8202 43.9599 30.9102C46.0299 29.9102 46.6999 27.1002 46.8799 24.9502C47.2399 17.5502 41.2899 10.9402 33.7599 11.8902C26.6499 12.7902 22.5199 20.9102 23.5199 27.6202C24.2099 32.3202 27.0899 36.5002 30.4499 39.9702C40.8599 50.3302 55.1999 56.6702 69.7799 58.0602C74.5499 58.3302 79.8999 58.3202 83.7399 55.0902C89.4099 50.7502 92.3799 40.6002 84.7999 36.6002C82.7199 35.4402 79.7399 34.6202 77.8399 36.0902L77.8499 36.0802Z" fill="white"/>
<path d="M14.2399 64.8302C13.4899 64.6802 12.9599 64.3202 12.6499 63.7602C12.3399 63.2002 12.1799 62.5002 12.1899 61.6802C12.1899 60.8502 12.2899 59.9702 12.4899 59.0302C12.6099 58.4202 12.7699 57.7602 12.9599 57.0502C13.1499 56.3402 13.3699 55.6102 13.6199 54.8402C13.2299 54.8702 12.8599 54.8902 12.4899 54.9002C12.1199 54.9002 11.7599 54.9002 11.4099 54.8602C11.1799 54.8102 10.9399 54.7302 10.6699 54.6102C10.3999 54.4902 10.1799 54.3502 10.0099 54.1902C9.82992 54.0302 9.75992 53.8702 9.78992 53.7102C9.82992 53.5402 9.97992 53.4002 10.2499 53.3102C10.4399 53.2402 10.7299 53.1902 11.1099 53.1602C11.4899 53.1302 11.9899 53.1002 12.6099 53.0802C12.6299 53.0802 12.6499 53.0802 12.6899 53.0802C12.7099 53.0802 12.7199 53.1002 12.7399 53.1202C12.7299 53.1902 12.6099 53.2902 12.3799 53.4302C12.1499 53.5702 12.0299 53.6802 12.0099 53.7602C12.0099 53.8002 12.0199 53.8202 12.0799 53.8302C12.1399 53.8402 12.2399 53.8302 12.4099 53.8202C12.6699 53.7802 12.9399 53.7402 13.2099 53.7002C13.4799 53.6602 13.7599 53.6102 14.0399 53.5602C14.4499 52.3402 14.8899 51.1102 15.3499 49.8902C15.8099 48.6702 16.2699 47.5102 16.7299 46.4102C17.1899 45.3102 17.5999 44.3702 17.9599 43.5702C17.8099 43.6702 17.6599 43.8302 17.4899 44.0702C17.3199 44.3102 17.1599 44.5302 17.0099 44.7402C16.8599 44.9502 16.7299 45.0402 16.6299 45.0202C16.5899 45.0202 16.5799 44.9702 16.5999 44.9002C16.6199 44.8302 16.6999 44.6602 16.8699 44.3802C17.0399 44.1002 17.2399 43.7902 17.4999 43.4402C17.7499 43.0902 18.0199 42.7502 18.2999 42.4202C18.5799 42.0902 18.8399 41.8202 19.0899 41.6102C19.3399 41.4102 19.5399 41.3202 19.6999 41.3502C19.8699 41.3902 20.0599 41.4902 20.2599 41.6802C20.4599 41.8702 20.6299 42.0602 20.7799 42.2602C20.9299 42.4602 20.9899 42.6202 20.9699 42.7202C20.9599 42.7702 20.9399 42.8102 20.9199 42.8202C20.0399 43.7702 19.1199 45.0802 18.1799 46.7702C17.2399 48.4602 16.3599 50.5502 15.5399 53.0302C15.5099 53.0802 15.4899 53.1502 15.4699 53.2302C16.5399 52.9802 17.6399 52.6702 18.7799 52.3102C19.9199 51.9502 21.0099 51.5502 22.0799 51.1202C23.1399 50.6802 24.1099 50.2102 24.9799 49.7102C25.8599 49.2102 26.5699 48.6702 27.1299 48.1202C27.6899 47.5602 28.0299 46.9902 28.1499 46.3902C28.2799 45.7402 28.1099 45.1402 27.6499 44.5702C27.1799 44.0002 26.5199 43.4802 25.6499 43.0002C24.7799 42.5202 23.8199 42.1002 22.7399 41.7402C21.6699 41.3802 20.5899 41.0802 19.5099 40.8602C18.5799 40.6702 17.7099 40.5202 16.8899 40.4202C16.0699 40.3202 15.3699 40.2102 14.8199 40.0902C14.4399 40.0102 14.2599 39.9102 14.2799 39.7902C14.2899 39.7202 14.4099 39.6402 14.6299 39.5602C15.5699 39.2402 16.4199 39.0702 17.1899 39.0502C17.9599 39.0302 18.6599 39.0802 19.3099 39.2102C19.9599 39.3402 20.7299 39.5702 21.6299 39.8902C22.5299 40.2102 23.4399 40.6002 24.3799 41.0602C25.3099 41.5202 26.1699 42.0402 26.9399 42.6002C27.7099 43.1702 28.3199 43.7702 28.7499 44.4202C29.1799 45.0702 29.3299 45.7102 29.1999 46.3802C29.0399 47.1702 28.5799 47.9902 27.8299 48.8402C27.0699 49.6902 26.0299 50.5302 24.6999 51.3502C24.1399 51.7102 23.3399 52.1002 22.3199 52.5402C21.2899 52.9802 20.1499 53.3902 18.8899 53.7802C17.6299 54.1702 16.3499 54.4702 15.0599 54.6702C14.9599 55.0702 14.8599 55.4802 14.7699 55.8902C14.6699 56.3102 14.5899 56.7202 14.5099 57.1202C14.1699 58.7802 13.9899 60.1102 13.9599 61.1402C13.9299 62.1702 14.0399 62.9102 14.2599 63.4002C14.4899 63.8802 14.7999 64.1702 15.2099 64.2502C15.5099 64.3102 15.7699 64.3102 15.9899 64.2302C16.2099 64.1602 16.3799 64.1302 16.4799 64.1602C16.5699 64.1802 16.5999 64.2302 16.5799 64.3202C16.5799 64.3502 16.4799 64.4402 16.3099 64.5802C16.1399 64.7202 15.8799 64.8202 15.5399 64.9002C15.1999 64.9802 14.7699 64.9602 14.2699 64.8602L14.2399 64.8302Z" fill="white"/>
<path d="M29.8999 62.7601C29.5999 62.7001 29.3499 62.5001 29.1399 62.1501C28.9299 61.8001 28.8699 61.4101 28.9599 60.9601C29.1299 60.1101 29.3399 59.2601 29.5699 58.4301C29.7999 57.6001 30.0299 56.8501 30.2399 56.2001C30.4499 55.5501 30.6099 55.0601 30.7099 54.7601C30.3899 55.4601 30.0199 56.1501 29.6099 56.8201C29.1999 57.4901 28.7999 58.1301 28.4099 58.7101C28.0199 59.3001 27.6799 59.7801 27.3999 60.1701C27.1199 60.5601 26.9499 60.8101 26.8899 60.9201C26.7799 61.1001 26.6099 61.1601 26.3899 61.1201C26.2199 61.0801 26.0299 60.9901 25.8199 60.8401C25.6099 60.6901 25.4399 60.5201 25.3099 60.3401C25.1699 60.1601 25.1099 60.0101 25.1099 59.9001C25.1099 59.8101 25.1199 59.7101 25.1499 59.5901L25.2199 59.2401C25.3799 58.4401 25.5899 57.6801 25.8499 56.9501C26.1099 56.2301 26.3499 55.5101 26.5899 54.8001C26.6899 54.4801 26.8199 54.1001 26.9799 53.6801C27.1399 53.2601 27.2599 52.8501 27.3399 52.4501C27.3799 52.2801 27.3999 52.1001 27.4199 51.9301C27.4399 51.7601 27.4199 51.6101 27.3999 51.4801C27.3599 51.3301 27.2099 51.1801 26.9399 51.0501C26.6799 50.9101 26.4499 50.8301 26.2599 50.7901C26.0499 50.7501 25.9599 50.6701 25.9799 50.5701C26.0199 50.3801 26.2299 50.3001 26.5999 50.3401C26.9399 50.3701 27.2499 50.4001 27.5399 50.4101C27.8299 50.4201 28.0999 50.4601 28.3599 50.5101C28.5999 50.5601 28.7999 50.6301 28.9299 50.7101C29.0699 50.7901 29.1199 50.9001 29.0899 51.0401C28.9499 51.7001 28.7299 52.4901 28.4199 53.4001C28.1099 54.3101 27.7899 55.2401 27.4599 56.1901C27.1299 57.1401 26.8899 58.0101 26.7199 58.7901C26.6699 59.0301 26.6299 59.2701 26.5999 59.4901C26.5699 59.7101 26.5999 59.8301 26.6899 59.8501C26.8099 59.8701 27.0199 59.7201 27.2999 59.3801C27.5899 59.0201 27.9299 58.5401 28.3199 57.9201C28.7099 57.3101 29.0999 56.6501 29.4999 55.9401C29.8999 55.2301 30.2699 54.5501 30.5999 53.8901C30.9299 53.2301 31.1999 52.6801 31.3999 52.2301C31.4399 52.1501 31.5099 52.1201 31.6399 52.1401C31.8299 52.1801 32.0299 52.3201 32.2199 52.5701C32.4099 52.8201 32.5399 53.0801 32.5899 53.3401C32.4999 53.5401 32.3499 53.9101 32.1499 54.4501C31.9499 54.9901 31.7299 55.6001 31.4999 56.2801C31.2699 56.9601 31.0599 57.6301 30.8699 58.2901C30.6799 58.9501 30.5399 59.5101 30.4499 59.9601C30.3399 60.5001 30.3299 60.8301 30.4199 60.9501C30.5099 61.0701 30.6199 61.1401 30.7399 61.1601C30.8799 61.1901 31.0699 61.1001 31.2999 60.8901C31.5299 60.6801 31.7799 60.4201 32.0499 60.0901C32.3199 59.7601 32.5799 59.4401 32.8499 59.1201C33.1099 58.8001 33.3499 58.5401 33.5399 58.3201C33.7399 58.1101 33.8799 58.0101 33.9699 58.0301C34.0399 58.0401 34.0699 58.1001 34.0499 58.1801C34.0399 58.2301 33.9899 58.3201 33.9099 58.4501C33.8099 58.6101 33.6299 58.8701 33.3799 59.2301C33.1299 59.5901 32.8499 59.9801 32.5299 60.3901C32.2099 60.8101 31.8799 61.2001 31.5499 61.5701C31.2199 61.9401 30.8999 62.2401 30.5999 62.4701C30.2999 62.7001 30.0499 62.8001 29.8599 62.7601H29.8999Z" fill="white"/>
<path d="M37.46 62.8303C36.81 62.7003 36.45 62.2503 36.37 61.4803C36.29 60.7103 36.37 59.7903 36.58 58.7303C36.7 58.1503 36.83 57.5903 36.98 57.0503C37.13 56.5103 37.25 56.0603 37.34 55.6903C37.07 55.6003 36.81 55.4903 36.58 55.3603C36.34 55.2303 36.16 55.1103 36.04 54.9903C36 55.1103 35.88 55.3403 35.68 55.6903C35.48 56.0403 35.25 56.4403 34.98 56.9003C34.71 57.3603 34.44 57.8003 34.15 58.2303C33.86 58.6603 33.6 59.0103 33.36 59.2803C33.12 59.5503 32.93 59.6703 32.8 59.6403C32.73 59.6303 32.71 59.5703 32.73 59.4603C32.76 59.3203 32.86 59.1403 33.03 58.9203C33.53 58.2803 33.99 57.6103 34.42 56.9103C34.85 56.2203 35.26 55.4903 35.65 54.7403C35.49 54.6303 35.39 54.4803 35.35 54.2803C35.31 54.0803 35.31 53.8703 35.35 53.6403C35.48 53.0103 35.67 52.5203 35.94 52.1503C36.2 51.7903 36.47 51.5303 36.74 51.3703C37.01 51.2103 37.2 51.1503 37.33 51.1803C37.54 51.2203 37.61 51.4203 37.54 51.7703C37.5 51.9403 37.41 52.2003 37.25 52.5403C37.09 52.8803 36.91 53.2203 36.71 53.5703C36.51 53.9203 36.35 54.2003 36.21 54.4103C36.39 54.5903 36.54 54.7003 36.66 54.7203C36.83 54.7603 37.03 54.6803 37.24 54.5003C37.45 54.3203 37.7 54.1403 37.98 53.9703C38.26 53.8003 38.58 53.7503 38.95 53.8303C39.14 53.8703 39.3 53.9303 39.43 54.0003C39.56 54.0703 39.62 54.1603 39.59 54.2603L39.57 54.3403C39.31 54.7403 39.06 55.2803 38.83 55.9703C38.6 56.6603 38.41 57.3603 38.26 58.0803C38.13 58.7103 38.05 59.3003 38.01 59.8703C37.97 60.4303 37.99 60.9003 38.07 61.2603C38.15 61.6203 38.3 61.8203 38.51 61.8703C38.72 61.9203 38.94 61.8403 39.18 61.6503C39.42 61.4603 39.64 61.2503 39.84 61.0203C40.04 60.7903 40.18 60.6203 40.26 60.5103C40.77 59.9003 41.08 59.5103 41.21 59.3303C41.34 59.1503 41.47 59.0703 41.61 59.1003C41.66 59.1103 41.68 59.1503 41.67 59.2203C41.67 59.2603 41.63 59.3403 41.56 59.4703C41.23 60.0003 40.85 60.5503 40.42 61.1103C39.99 61.6703 39.52 62.1203 39.01 62.4703C38.5 62.8203 37.99 62.9403 37.46 62.8403V62.8303Z" fill="white"/>
<path d="M42.47 64.8602C41.88 64.7402 41.46 64.4502 41.21 64.0002C40.96 63.5502 40.85 63.0102 40.86 62.3902C40.86 61.7602 40.94 61.1502 41.06 60.5402C41.15 60.1202 41.24 59.7302 41.36 59.3602C41.47 58.9902 41.57 58.6702 41.67 58.4002C41.9 57.7002 42.16 57.0402 42.43 56.4002C42.7 55.7602 42.96 55.2302 43.18 54.7802C43.4 54.3302 43.55 54.0502 43.62 53.9202C43.74 53.6902 43.89 53.5902 44.09 53.6302C44.29 53.6702 44.47 53.8402 44.67 54.1402C44.86 54.4402 45 54.6802 45.07 54.8602C45.45 55.0602 45.81 55.2902 46.16 55.5302C46.51 55.7702 46.79 56.0202 47.01 56.2602C47.22 56.5002 47.31 56.7402 47.26 56.9702C47.17 57.4002 46.9 57.8002 46.44 58.1702C45.98 58.5402 45.44 58.8402 44.81 59.0902C44.18 59.3402 43.55 59.5402 42.92 59.6902C42.78 60.1002 42.67 60.5102 42.59 60.9302C42.45 61.6302 42.41 62.2602 42.48 62.8202C42.55 63.3802 42.79 63.7002 43.21 63.7902C43.58 63.8602 43.96 63.8102 44.35 63.6102C44.74 63.4202 45.13 63.1502 45.51 62.8102C45.89 62.4702 46.24 62.1202 46.56 61.7602C46.88 61.4002 47.13 61.0902 47.31 60.8302C47.37 60.7302 47.46 60.7002 47.58 60.7202C47.65 60.7302 47.67 60.8202 47.64 60.9602C47.61 61.1002 47.44 61.3902 47.14 61.8002C46.85 62.1702 46.55 62.5302 46.26 62.8602C45.97 63.1902 45.69 63.4702 45.42 63.7102C45.04 64.0302 44.61 64.3302 44.1 64.6102C43.59 64.8902 43.07 64.9702 42.51 64.8602H42.47ZM43.13 58.9702C43.81 58.7602 44.43 58.4802 45.01 58.1102C45.58 57.7502 45.93 57.2902 46.04 56.7502C46.08 56.5602 45.98 56.3302 45.73 56.0702C45.48 55.8102 45.18 55.5702 44.83 55.3602C44.51 55.8802 44.21 56.4302 43.93 57.0302C43.65 57.6302 43.39 58.2802 43.14 58.9702H43.13Z" fill="white"/>
<path d="M49.5699 88.9302C49.2699 88.9302 48.9899 88.8102 48.7399 88.5802C48.4899 88.3502 48.3699 88.1402 48.3699 87.9602C48.3699 87.9302 48.3699 87.9102 48.3799 87.8802C48.3799 87.8502 48.3999 87.8202 48.4099 87.8002C48.4099 87.7702 48.4099 87.7602 48.4299 87.7602H48.4099C48.2999 87.7602 48.2099 87.7302 48.1399 87.6802C47.6299 87.3202 47.2599 86.9002 47.0399 86.4202C46.8199 85.9402 46.7099 85.4002 46.7099 84.8002C46.7099 83.9902 46.8899 83.1102 47.2499 82.1602C47.6099 81.2102 48.0799 80.2502 48.6699 79.2802C49.2599 78.3102 49.8999 77.3702 50.5999 76.4702C51.2999 75.5702 51.9899 74.7602 52.6799 74.0302C52.6899 73.9302 52.6999 73.8402 52.6999 73.7602V73.4902C52.6999 72.8802 52.6699 72.3402 52.6199 71.8602C52.5599 71.3802 52.4999 70.9702 52.4099 70.6302C51.9999 71.1302 51.6499 71.5902 51.3699 72.0202C51.0899 72.4502 50.8299 72.8902 50.5699 73.3302C50.3099 73.7802 50.0099 74.3002 49.6499 74.8902C49.4699 75.1802 49.2399 75.5302 48.9599 75.9302C48.6799 76.3402 48.3599 76.7402 48.0199 77.1302C47.6699 77.5202 47.3099 77.8502 46.9199 78.1102C46.5299 78.3702 46.1299 78.5002 45.7199 78.5002C45.2399 78.5002 44.7999 78.3702 44.3999 78.1202C44.0099 77.8602 43.6999 77.5202 43.4699 77.0902C43.2399 76.6602 43.1299 76.1902 43.1299 75.6802C43.1299 74.5302 43.4299 73.4102 44.0299 72.3202C44.6299 71.2302 45.4099 70.2402 46.3599 69.3402H45.7399C45.4899 69.3402 45.3199 69.3202 45.2199 69.2802C45.1199 69.2402 45.0799 69.2002 45.0799 69.1602C45.0799 69.1102 45.1299 69.0602 45.2499 69.0202C45.3599 68.9802 45.4799 68.9602 45.6199 68.9602C45.7299 68.9602 45.8899 68.9602 46.0999 68.9502C46.3099 68.9402 46.5599 68.9302 46.8499 68.9202C47.6499 68.2202 48.5099 67.6002 49.4399 67.0802C50.3599 66.5602 51.2899 66.1502 52.2199 65.8602C53.1499 65.5702 54.0199 65.4302 54.8399 65.4302C55.1199 65.4302 55.3799 65.4502 55.6199 65.5002C55.8599 65.5502 56.0899 65.6102 56.3099 65.6802C56.4299 65.7202 56.5499 65.8502 56.6499 66.0502C56.7499 66.2502 56.8299 66.4702 56.8899 66.7002C56.9499 66.9302 56.9699 67.1002 56.9699 67.2302V67.3102C56.8199 67.5302 56.5199 67.7302 56.0699 67.9102C55.6199 68.0902 55.0799 68.2502 54.4299 68.4002C53.7799 68.5502 53.0999 68.6702 52.3699 68.7802C51.6399 68.8902 50.8999 68.9802 50.1599 69.0602C49.4199 69.1402 48.7299 69.2002 48.0999 69.2602C47.3799 69.8802 46.7499 70.5602 46.1899 71.3102C45.6399 72.0502 45.2099 72.8102 44.8999 73.5902C44.5899 74.3602 44.4299 75.1202 44.4299 75.8502C44.4299 76.2802 44.5299 76.6302 44.7199 76.9102C44.9099 77.1902 45.2199 77.3202 45.6499 77.3202C46.0199 77.3202 46.3899 77.2402 46.7599 77.0802C47.1299 76.9202 47.4399 76.6902 47.6999 76.3902C48.1099 75.9302 48.5399 75.4002 48.9699 74.7802C49.3999 74.1602 49.8199 73.5102 50.2199 72.8302C50.6199 72.1502 50.9699 71.5002 51.2799 70.8602C51.5799 70.2202 51.7999 69.6602 51.9399 69.1602C51.9399 69.1302 51.9699 69.1202 52.0399 69.1202C52.1499 69.1202 52.3099 69.1502 52.5299 69.2102C52.7399 69.2702 52.9399 69.3702 53.1199 69.4902C53.2999 69.6102 53.3999 69.7702 53.4299 69.9702C53.4799 70.3202 53.5299 70.6802 53.5499 71.0602C53.5799 71.4402 53.5899 71.8402 53.5899 72.2702C53.5899 72.4102 53.5899 72.5402 53.5799 72.6702C53.5699 72.8002 53.5699 72.9402 53.5699 73.0902C54.4399 72.2502 55.1499 71.6702 55.6999 71.3702C55.8699 71.3002 55.9999 71.2702 56.0899 71.2702C56.2099 71.2702 56.2799 71.3102 56.2799 71.3902C56.2799 71.4302 56.2599 71.4702 56.2199 71.5102C55.7799 71.8302 55.3299 72.1802 54.8699 72.5702C54.4099 72.9602 53.9699 73.3702 53.5199 73.8102C53.4399 74.9702 53.2899 76.1602 53.0799 77.3902C52.8699 78.6202 52.6299 79.8202 52.3599 80.9802C52.0799 82.1502 51.8099 83.2202 51.5299 84.1902C51.2499 85.1602 51.0099 85.9802 50.7799 86.6302C50.5499 87.2802 50.3899 87.7202 50.2799 87.9202C50.1299 88.1802 50.0099 88.4102 49.9399 88.6102C49.8599 88.8102 49.7299 88.9102 49.5399 88.9102L49.5699 88.9302ZM48.6799 87.1902C49.1099 86.2602 49.5299 85.2802 49.9499 84.2302C50.3699 83.1802 50.7699 82.1102 51.1399 81.0302C51.5099 79.9502 51.8299 78.8702 52.0799 77.8102C52.3399 76.7502 52.5099 75.7402 52.6099 74.7902C51.9099 75.5502 51.2499 76.3502 50.6299 77.2002C50.0099 78.0502 49.4699 78.9002 48.9899 79.7602C48.5099 80.6202 48.1399 81.4502 47.8699 82.2602C47.5999 83.0702 47.4699 83.8202 47.4699 84.5302C47.4699 85.0802 47.5599 85.5902 47.7499 86.0402C47.9399 86.5002 48.2399 86.8802 48.6699 87.2002L48.6799 87.1902ZM48.6799 68.7802C49.4099 68.7102 50.1699 68.6202 50.9699 68.5002C51.7599 68.3802 52.5199 68.2402 53.2399 68.0902C53.9599 67.9402 54.5699 67.7502 55.0799 67.5402C55.5899 67.3302 55.9199 67.1002 56.0699 66.8402C55.6399 66.6302 55.1299 66.5302 54.5399 66.5302C53.5199 66.5302 52.4999 66.7402 51.4999 67.1502C50.4999 67.5602 49.5499 68.1102 48.6799 68.7902V68.7802Z" fill="white"/>
<path d="M60.3998 80.5004C60.2498 80.5004 60.0798 80.4404 59.8998 80.3204C59.7198 80.2004 59.5998 80.0804 59.5298 79.9404C59.5298 79.6204 59.5698 79.1904 59.6498 78.6404C59.7298 78.0904 59.8298 77.5204 59.9298 76.9304C60.0298 76.3404 60.1298 75.8404 60.2098 75.4304C59.9598 75.8204 59.6798 76.2404 59.3598 76.6904C59.0398 77.1504 58.7198 77.5704 58.3898 77.9604C58.0598 78.3504 57.7198 78.6804 57.3898 78.9304C57.0498 79.1904 56.7398 79.3104 56.4498 79.3104C56.1598 79.3104 55.9298 79.2104 55.7698 79.0104C55.5998 78.8104 55.5198 78.5804 55.5198 78.3204C55.5198 78.2504 55.5298 78.1604 55.5598 78.0504C55.6798 77.4104 55.9298 76.8204 56.2898 76.2604C56.6498 75.7004 57.0798 75.2104 57.5498 74.7804C58.0298 74.3504 58.4998 74.0104 58.9698 73.7704C59.4398 73.5204 59.8398 73.4004 60.1698 73.4004C60.4198 73.4004 60.6598 73.4504 60.8798 73.5604C61.1098 73.6604 61.3298 73.8304 61.5298 74.0704C61.5698 74.1104 61.5898 74.1604 61.5898 74.2104C61.5898 74.2804 61.5498 74.3504 61.4698 74.4204C61.3698 74.7504 61.2698 75.1504 61.1698 75.6104C61.0698 76.0704 60.9698 76.5504 60.8798 77.0404C60.7898 77.5304 60.7198 77.9804 60.6598 78.4004C60.6098 78.8104 60.5798 79.1304 60.5798 79.3504C60.5798 79.5004 60.5998 79.5804 60.6398 79.5804C60.7498 79.5804 60.8898 79.4604 61.0598 79.2304C61.2298 79.0004 61.3998 78.7304 61.5698 78.4204C61.7398 78.1204 61.8798 77.8504 62.0098 77.6104C62.1398 77.3804 62.2198 77.2604 62.2498 77.2604C62.2898 77.2604 62.3098 77.3104 62.3098 77.4304C62.3098 77.6604 62.2298 77.9504 62.0798 78.3004C61.9298 78.6504 61.7498 78.9904 61.5298 79.3204C61.3198 79.6604 61.0998 79.9404 60.8898 80.1704C60.6798 80.4004 60.5098 80.5104 60.3798 80.5104L60.3998 80.5004ZM56.6098 78.5504C56.7998 78.5504 57.0498 78.4404 57.3498 78.2204C57.6498 78.0004 57.9598 77.7204 58.2798 77.3704C58.5998 77.0304 58.9198 76.6604 59.2298 76.2704C59.5398 75.8804 59.8098 75.5104 60.0398 75.1604C60.2698 74.8104 60.4298 74.5204 60.5298 74.3004C60.2498 74.3004 59.9398 74.4004 59.5798 74.6004C59.2198 74.8004 58.8598 75.0604 58.4798 75.3704C58.1098 75.6804 57.7598 76.0204 57.4398 76.3904C57.1198 76.7604 56.8698 77.1104 56.6698 77.4604C56.4798 77.8104 56.3798 78.1004 56.3798 78.3504C56.3798 78.4904 56.4598 78.5604 56.6098 78.5604V78.5504Z" fill="white"/>
<path d="M65.7799 80.2302C65.2699 80.2302 64.9199 79.9402 64.7399 79.3702C64.5599 78.8002 64.4699 78.0902 64.4699 77.2502C64.4699 76.7902 64.4799 76.3502 64.5099 75.9102C64.5399 75.4802 64.5599 75.1102 64.5699 74.8202C64.3499 74.7902 64.1399 74.7502 63.9399 74.6902C63.7399 74.6302 63.5799 74.5602 63.4699 74.4902C63.4599 74.5902 63.3999 74.7802 63.2999 75.0802C63.1999 75.3802 63.0899 75.7202 62.9599 76.1102C62.8299 76.5002 62.6899 76.8802 62.5399 77.2502C62.3899 77.6202 62.2399 77.9302 62.1099 78.1702C61.9699 78.4102 61.8499 78.5302 61.7399 78.5302C61.6799 78.5302 61.6599 78.4902 61.6599 78.4102C61.6599 78.3002 61.7099 78.1501 61.7999 77.9501C62.0799 77.3801 62.3199 76.8002 62.5499 76.2102C62.7799 75.6202 62.9699 75.0002 63.1499 74.3702C63.0099 74.3202 62.9099 74.2102 62.8499 74.0702C62.7899 73.9302 62.7599 73.7602 62.7599 73.5802C62.7599 73.0802 62.8299 72.6702 62.9799 72.3602C63.1199 72.0402 63.2899 71.8002 63.4699 71.6502C63.6499 71.5002 63.7899 71.4102 63.8799 71.4102C64.0499 71.4102 64.1299 71.5502 64.1299 71.8202C64.1299 71.9602 64.0999 72.1701 64.0299 72.4501C63.9599 72.7301 63.8799 73.0202 63.7799 73.3202C63.6799 73.6202 63.5999 73.8602 63.5299 74.0302C63.6999 74.1402 63.8299 74.2001 63.9199 74.2001C64.0599 74.2001 64.1899 74.1102 64.3199 73.9402C64.4499 73.7702 64.6099 73.5902 64.7999 73.4202C64.9899 73.2502 65.2199 73.1602 65.5099 73.1602C65.6599 73.1602 65.7899 73.1802 65.8999 73.2102C66.0099 73.2502 66.0699 73.3002 66.0699 73.3902V73.4501C65.9299 73.8001 65.8299 74.2502 65.7599 74.8102C65.6899 75.3702 65.6599 75.9302 65.6599 76.5002C65.6599 77.0002 65.6899 77.4602 65.7399 77.9002C65.7899 78.3302 65.8799 78.6802 65.9999 78.9402C66.1199 79.2002 66.2599 79.3302 66.4199 79.3302C66.5799 79.3302 66.7399 79.2401 66.8999 79.0602C67.0499 78.8802 67.1899 78.6902 67.2999 78.4802C67.4099 78.2702 67.4999 78.1201 67.5399 78.0201C67.8299 77.4801 68.0099 77.1302 68.0799 76.9802C68.1499 76.8302 68.2399 76.7402 68.3499 76.7402C68.3899 76.7402 68.4099 76.7702 68.4099 76.8202C68.4099 76.8502 68.3999 76.9202 68.3699 77.0302C68.1999 77.4902 67.9999 77.9601 67.7599 78.4501C67.5199 78.9401 67.2299 79.3601 66.8999 79.7001C66.5699 80.0401 66.1999 80.2202 65.7799 80.2202V80.2302Z" fill="white"/>
<path d="M76.0098 83.3301C75.5298 83.3301 75.0998 83.0301 74.7298 82.4401C74.2898 81.7501 73.9398 80.9401 73.6698 80.0001C73.4098 79.0601 73.2098 78.0501 73.0698 76.9501C72.8398 77.3201 72.5598 77.7201 72.2398 78.1301C71.9198 78.5401 71.5698 78.9301 71.1798 79.3001C70.7898 79.6701 70.3898 79.9601 69.9798 80.1901C69.5698 80.4201 69.1398 80.5301 68.7198 80.5301C68.3198 80.5301 68.0098 80.4601 67.7798 80.3201C67.5498 80.1801 67.3898 80.0201 67.2798 79.8301C67.1798 79.6401 67.1098 79.4701 67.0898 79.3001C67.0698 79.1301 67.0598 79.0201 67.0598 78.9501C67.0598 78.5601 67.1998 78.1401 67.4798 77.6901C67.7598 77.2301 68.1598 76.8001 68.6798 76.4001C69.1998 75.9901 69.8098 75.6601 70.5198 75.4001C71.2298 75.1401 72.0098 75.0101 72.8498 75.0101H72.8698C72.8398 74.5001 72.8198 73.9801 72.8098 73.4601C72.7898 72.9401 72.7898 72.4001 72.7898 71.8701C72.7898 71.1401 72.8098 70.4101 72.8498 69.6901C72.8898 68.9701 72.9598 68.3201 73.0698 67.7301C73.1698 67.1401 73.3198 66.6901 73.4898 66.3501C73.5698 66.2101 73.6998 66.1401 73.8598 66.1401C74.2198 66.1401 74.5398 66.2701 74.8298 66.5401C75.1198 66.8101 75.3498 67.1301 75.5298 67.5001C75.7098 67.8701 75.7998 68.2301 75.7998 68.5801C75.7998 69.5901 75.6198 70.6301 75.2598 71.7101C74.8998 72.7901 74.4798 73.9201 73.9998 75.1101V75.1701L74.2898 75.2701C74.5698 75.4101 74.7998 75.5801 74.9798 75.7801C75.1698 75.9801 75.2598 76.1601 75.2598 76.3101C75.2598 76.3601 75.2398 76.3901 75.1998 76.3901C75.1598 76.3901 75.1198 76.3501 75.0798 76.2901C74.7298 75.9901 74.3898 75.7901 74.0498 75.7101C74.1598 76.8701 74.3398 77.9401 74.5898 78.9101C74.8398 79.8801 75.1598 80.7301 75.5598 81.4501C75.7898 81.8801 75.9898 82.1701 76.1398 82.3301C76.2898 82.4901 76.4198 82.5701 76.5298 82.5701C76.6398 82.5701 76.7398 82.5001 76.8298 82.3701C76.9198 82.2401 76.9898 82.1701 77.0498 82.1701C77.0898 82.1701 77.1098 82.2101 77.1098 82.2901V82.3701C77.0798 82.4401 77.0298 82.5501 76.9398 82.7001C76.8598 82.8501 76.7398 82.9901 76.5898 83.1201C76.4398 83.2501 76.2398 83.3201 75.9898 83.3201L76.0098 83.3301ZM68.4898 80.0401C68.8298 80.0401 69.2198 79.9301 69.6398 79.7001C70.0598 79.4701 70.4798 79.1801 70.8998 78.8201C71.3198 78.4601 71.7098 78.0701 72.0798 77.6501C72.4498 77.2301 72.7498 76.8301 72.9998 76.4401L72.9198 75.5701C72.5598 75.5801 72.1598 75.6901 71.7098 75.8801C71.2598 76.0701 70.8098 76.3101 70.3398 76.6001C69.8798 76.8901 69.4498 77.2001 69.0698 77.5401C68.6798 77.8801 68.3698 78.2101 68.1298 78.5301C67.8898 78.8501 67.7698 79.1501 67.7698 79.4101C67.7698 79.6601 67.8998 79.8501 68.1598 79.9901C68.2198 80.0001 68.2698 80.0101 68.3298 80.0201C68.3798 80.0201 68.4398 80.0301 68.4998 80.0301L68.4898 80.0401ZM73.9598 74.3701C74.2498 73.6301 74.4798 72.9601 74.6598 72.3601C74.8398 71.7701 74.9998 71.1201 75.1398 70.4301C75.1798 70.2101 75.2198 69.9801 75.2398 69.7401C75.2698 69.5001 75.2798 69.2701 75.2798 69.0501C75.2798 68.6501 75.2398 68.3001 75.1698 67.9901C75.0998 67.6801 74.9698 67.5101 74.8098 67.4501C74.5598 67.6601 74.3698 68.0001 74.2398 68.4801C74.1098 68.9601 74.0198 69.5001 73.9698 70.1101C73.9198 70.7301 73.8998 71.3401 73.8998 71.9601C73.8998 72.7901 73.9198 73.5901 73.9598 74.3601V74.3701Z" fill="white"/>
<path d="M79.1199 81.0002C78.6499 81.0002 78.2899 80.8502 78.0299 80.5402C77.7699 80.2402 77.5999 79.8502 77.5099 79.3702C77.4199 78.8902 77.3799 78.4102 77.3799 77.9302C77.3799 77.6002 77.3899 77.2802 77.4199 76.9902C77.4499 76.6902 77.4799 76.4302 77.4999 76.2102C77.5699 75.6402 77.6599 75.1002 77.7699 74.5702C77.8799 74.0502 77.9899 73.6002 78.0899 73.2302C78.1899 72.8602 78.2599 72.6102 78.2899 72.5102C78.3399 72.3202 78.4499 72.2202 78.5999 72.2202C78.7499 72.2202 78.9199 72.3202 79.1199 72.5202C79.3199 72.7202 79.4499 72.8802 79.5299 73.0102C79.8499 73.1102 80.1599 73.2202 80.4599 73.3502C80.7599 73.4802 81.0099 73.6202 81.2199 73.7702C81.4299 73.9202 81.5199 74.0902 81.5199 74.2702C81.5199 74.6202 81.3799 74.9602 81.0899 75.3002C80.7999 75.6502 80.4299 75.9602 79.9899 76.2502C79.5499 76.5402 79.0999 76.7902 78.6399 76.9902C78.5999 77.3202 78.5799 77.6502 78.5799 77.9802C78.5799 78.5302 78.6499 79.0102 78.7899 79.4302C78.9299 79.8502 79.1599 80.0502 79.4899 80.0502C79.7799 80.0502 80.0599 79.9502 80.3299 79.7402C80.5999 79.5302 80.8499 79.2702 81.0899 78.9502C81.3299 78.6302 81.5399 78.3102 81.7199 77.9902C81.9099 77.6702 82.0499 77.3902 82.1399 77.1702C82.1699 77.0902 82.2299 77.0502 82.3299 77.0502C82.3799 77.0502 82.4099 77.1102 82.4099 77.2302C82.4099 77.3502 82.3299 77.5902 82.1599 77.9402C81.9899 78.2702 81.8299 78.5902 81.6499 78.8802C81.4799 79.1802 81.3099 79.4402 81.1399 79.6602C80.9099 79.9602 80.6199 80.2602 80.2799 80.5502C79.9399 80.8402 79.5499 80.9802 79.1099 80.9802L79.1199 81.0002ZM78.7099 76.4202C79.1899 76.1602 79.6299 75.8402 79.9999 75.4802C80.3799 75.1102 80.5699 74.7202 80.5699 74.2902C80.5699 74.1402 80.4599 73.9802 80.2299 73.8202C79.9999 73.6602 79.7399 73.5302 79.4299 73.4202C79.2599 73.8602 79.1199 74.3302 79.0099 74.8302C78.8899 75.3302 78.7899 75.8602 78.7099 76.4202Z" fill="white"/>
<path d="M83.5098 82.6104C83.3698 82.6104 83.1798 82.5004 82.9398 82.2904C82.6998 82.0804 82.5298 81.8003 82.4298 81.4503C82.3698 81.2203 82.3298 80.9004 82.3098 80.5004C82.2798 80.1004 82.2698 79.6504 82.2698 79.1504C82.2698 78.3204 82.2898 77.4304 82.3198 76.4804C82.3498 75.5304 82.3698 74.6704 82.3698 73.9104C82.3698 73.6604 82.3698 73.4304 82.3598 73.2104C82.3498 72.9904 82.3398 72.8003 82.3298 72.6303C82.2998 72.6003 82.2198 72.5803 82.0898 72.5603C81.9598 72.5403 81.7698 72.5104 81.5398 72.4704C81.5398 72.4404 81.6498 72.3803 81.8598 72.2703C82.0698 72.1703 82.3798 72.1104 82.7798 72.1104C83.1798 72.1104 83.4698 72.2004 83.5998 72.3704C83.7298 72.5404 83.7998 72.6903 83.7998 72.8103V72.9104C83.7998 72.9104 83.7998 72.9904 83.7798 73.0104C83.6298 73.7404 83.4798 74.6003 83.3498 75.5903C83.2098 76.5803 83.1398 77.6203 83.1398 78.7104C83.1398 78.9704 83.1398 79.2004 83.1498 79.4004C83.1498 79.6004 83.1598 79.7804 83.1598 79.9304V80.1204C83.2398 79.3504 83.3898 78.6104 83.5898 77.9104C83.7998 77.2104 83.9998 76.4504 84.2098 75.6204C84.3798 74.9004 84.5198 74.3503 84.6298 73.9503C84.7498 73.5603 84.8698 73.2804 84.9998 73.1204C85.1298 72.9604 85.2898 72.8803 85.4698 72.8803C85.7198 72.8803 85.8898 72.9804 85.9898 73.1904C86.0898 73.4004 86.1498 73.6804 86.1798 74.0404C86.2098 74.4004 86.2398 74.8103 86.2598 75.2703C86.2898 75.7303 86.3598 76.2304 86.4698 76.7504C86.6398 77.5404 86.8298 78.1104 87.0498 78.4704C87.2698 78.8304 87.4598 79.0104 87.6098 79.0104C87.7898 79.0104 87.9698 78.9003 88.1498 78.6703C88.3298 78.4403 88.4998 78.1804 88.6698 77.8704C88.8398 77.5704 88.9798 77.3004 89.1098 77.0704C89.2398 76.8404 89.3498 76.7304 89.4298 76.7304C89.4698 76.7304 89.4898 76.7604 89.4898 76.8304C89.4898 76.8904 89.4698 76.9703 89.4298 77.1003C89.0798 77.8703 88.7898 78.4704 88.5598 78.8904C88.3198 79.3104 87.9998 79.5203 87.5898 79.5203C87.2698 79.5203 86.9498 79.3804 86.6398 79.1104C86.4698 78.9704 86.3098 78.7504 86.1498 78.4404C85.9898 78.1304 85.8398 77.7903 85.7098 77.4203C85.5798 77.0503 85.4398 76.6903 85.3298 76.3503C85.2098 76.0103 85.1098 75.7304 85.0298 75.5104C84.9498 75.2904 84.8898 75.1804 84.8598 75.1804C84.8298 75.1804 84.7898 75.2104 84.7298 75.2604C84.6698 75.3204 84.6198 75.4104 84.5998 75.5504C84.3698 76.4104 84.1798 77.2503 84.0298 78.0903C83.8898 78.9303 83.7798 79.6803 83.7098 80.3503C83.6398 81.0203 83.6098 81.5304 83.6098 81.8904C83.6098 82.0704 83.6198 82.2003 83.6398 82.2703C83.6598 82.3403 83.6698 82.4003 83.6698 82.4503C83.6698 82.5503 83.6198 82.5903 83.5298 82.5903L83.5098 82.6104Z" fill="white"/>
<path d="M87.68 28.9697C85.61 28.2297 84.71 31.3997 86.83 31.9997C88.78 32.6997 89.64 29.6697 87.68 28.9697Z" fill="#BA0909"/>
<path d="M77.69 24.5199C79.47 25.0199 80.12 22.8699 78.58 22.0099C76.8 21.5099 75.92 24.0199 77.69 24.5199Z" fill="#BA0909"/>
<path d="M69.1501 14.9098C67.3501 14.4098 66.5601 17.1998 68.3701 17.7098C70.1801 18.2198 70.9601 15.4198 69.1501 14.9098Z" fill="#BA0909"/>
<path d="M75.8902 30.3898L75.9902 29.5598C76.1402 27.7798 76.4202 26.8098 77.0102 25.0398C75.9002 25.0498 74.7702 26.1098 73.6202 28.9698C73.1702 28.2598 72.8202 28.0198 71.6702 27.7998C73.0202 24.6798 70.8302 20.7198 68.0702 18.7798C70.2702 21.8398 69.8802 25.6298 67.8702 28.4898C67.8002 29.0198 68.1902 29.4898 68.7202 29.5298C71.7002 29.9498 74.5202 31.3698 76.6502 33.4998C76.7702 33.5998 76.9202 33.8398 77.3502 34.0498C77.8102 34.2798 78.3902 34.1298 78.6202 33.9698C79.4502 33.3798 80.0302 32.8598 80.9602 32.4498C82.2602 31.8398 83.7202 31.5098 85.2702 31.4998C82.9502 29.9598 80.2002 28.2498 78.0902 30.8898C77.5002 30.4298 76.7702 30.2598 75.9002 30.3998L75.8902 30.3898ZM77.9202 32.5398C77.9202 32.5398 77.9002 32.5398 77.9002 32.5498C77.8502 32.5598 77.8702 32.5498 77.9202 32.5398Z" fill="#BA0909"/>
</g>
<defs>
<clipPath id="clip0_855_1006">
<rect width="100" height="100" fill="white"/>
</clipPath>
</defs>
</svg>
